<svg xmlns="http://www.w3.org/2000/svg" viewBox="0 0 695.35 112.57"><defs><style>.cls-1{fill:#09d364;}</style></defs><g id="Layer_2" data-name="Layer 2"><g id="Layer_1-2" data-name="Layer 1"><path class="cls-1" d="M33.08,66.54a32.66,32.66,0,0,1-17.29-4.83c0,.06,0,11.51,0,11.57-1.46,3.11-4,6.36-7.51,6.36-2.3,0-4.25.11-5.86-1.5S0,75.3,0,73V32.71A32.16,32.16,0,0,1,9.94,9.86,31.74,31.74,0,0,1,33.08.37a31.89,31.89,0,0,1,23.39,9.7,31.85,31.85,0,0,1,9.7,23.39,31.84,31.84,0,0,1-9.7,23.41A31.9,31.9,0,0,1,33.08,66.54Zm0-16.54A16.49,16.49,0,0,0,49.63,33.46,16,16,0,0,0,44.8,21.78a15.91,15.91,0,0,0-11.72-4.86,15.89,15.89,0,0,0-11.71,4.86,16,16,0,0,0-4.83,11.68A16.49,16.49,0,0,0,33.08,50Z"/><path class="cls-1" d="M136.08,33.46v.18a32,32,0,0,1-9.79,23.3,33.11,33.11,0,0,1-46.63,0,31.85,31.85,0,0,1-9.75-23.3V8.27a8,8,0,0,1,2.41-5.82A8.23,8.23,0,0,1,84,2.45a8,8,0,0,1,2.41,5.82V33.46c0,4.59,2.21,8,4.83,11.71C93.74,48.66,96.36,50.72,103,50c4.57-.5,8.5-1.61,11.72-4.83a15.93,15.93,0,0,0,4.82-11.71,8.28,8.28,0,1,1,16.55,0Z"/><path class="cls-1" d="M172.9,66.54a31.89,31.89,0,0,1-23.41-9.67,31.89,31.89,0,0,1-9.67-23.41,31.9,31.9,0,0,1,9.67-23.39A33,33,0,0,1,196,9.86a32.27,32.27,0,0,1,10,22.85V58.27a8.25,8.25,0,0,1-8.27,8.27,7.7,7.7,0,0,1-7.56-4.83A32.86,32.86,0,0,1,172.9,66.54Zm0-16.54a16.47,16.47,0,0,0,16.54-16.54,16,16,0,0,0-4.82-11.68,16.55,16.55,0,0,0-23.43,0,16,16,0,0,0-4.83,11.68A16.49,16.49,0,0,0,172.9,50Z"/><path class="cls-1" d="M226.27,58.27a8.27,8.27,0,1,1-16.54,0,31.63,31.63,0,0,1,11.19-24.81A31.57,31.57,0,0,1,209.73,8.65a8,8,0,0,1,2.41-5.82,8.21,8.21,0,0,1,11.72,0,8,8,0,0,1,2.41,5.82,15.94,15.94,0,0,0,4.83,11.71,16.62,16.62,0,0,0,23.43,0,16,16,0,0,0,4.82-11.71,8,8,0,0,1,2.42-5.82,8.2,8.2,0,0,1,11.71,0,8,8,0,0,1,2.42,5.82,32.76,32.76,0,0,1-9.74,23.4,31.53,31.53,0,0,1-23.35,9.68,16.49,16.49,0,0,0-16.54,16.54Z"/><path class="cls-1" d="M312.72.37A31.8,31.8,0,0,1,331.4,6.19a33,33,0,0,1,12,14.84H323.65a16.22,16.22,0,0,0-10.93-4.11A15.89,15.89,0,0,0,301,21.78a16,16,0,0,0-4.83,11.68A16.49,16.49,0,0,0,312.72,50a15.55,15.55,0,0,0,14.33-8.27H312.72a8.25,8.25,0,0,1-8.27-8.27,8.23,8.23,0,0,1,8.27-8.27h32a32.43,32.43,0,0,1,1.08,8.27,31.87,31.87,0,0,1-9.69,23.41,33.15,33.15,0,0,1-46.8,0,31.89,31.89,0,0,1-9.67-23.41,31.9,31.9,0,0,1,9.67-23.39A31.87,31.87,0,0,1,312.72.37Z"/><path class="cls-1" d="M382.63,66.54a31.88,31.88,0,0,1-23.41-9.67,31.89,31.89,0,0,1-9.67-23.41,31.9,31.9,0,0,1,9.67-23.39,33,33,0,0,1,46.5-.21,32.3,32.3,0,0,1,10,22.85V58.27a8.23,8.23,0,0,1-8.27,8.27,7.72,7.72,0,0,1-7.56-4.83A32.82,32.82,0,0,1,382.63,66.54Zm0-16.54a15.93,15.93,0,0,0,11.71-4.83,15.94,15.94,0,0,0,4.83-11.71,16,16,0,0,0-4.83-11.68,16.54,16.54,0,0,0-23.42,0,16,16,0,0,0-4.83,11.68A16.49,16.49,0,0,0,382.63,50Z"/><path class="cls-1" d="M485.62,33.08a8.27,8.27,0,1,1-16.54,0,16,16,0,0,0-4.83-11.67,16.51,16.51,0,0,0-23.42,0A16,16,0,0,0,436,33.08V58.27a8.27,8.27,0,1,1-16.54,0V32.9a31.89,31.89,0,0,1,9.75-23.26,33,33,0,0,1,46.63,0,32,32,0,0,1,9.78,23.26Z"/><path class="cls-1" d="M522.45.37A32.3,32.3,0,0,1,539.7,5.28,7.7,7.7,0,0,1,547.26.37a7.9,7.9,0,0,1,5.86,2.46,8,8,0,0,1,2.41,5.82V34.21a32.21,32.21,0,0,1-10,22.92,33.1,33.1,0,0,1-46.5-.26,31.89,31.89,0,0,1-9.67-23.41A31.9,31.9,0,0,1,499,10.07,31.87,31.87,0,0,1,522.45.37Zm0,16.55a15.88,15.88,0,0,0-11.71,4.86,16,16,0,0,0-4.83,11.68,15.94,15.94,0,0,0,4.83,11.71,16.61,16.61,0,0,0,23.42,0A15.94,15.94,0,0,0,539,33.46a16,16,0,0,0-4.83-11.68A15.89,15.89,0,0,0,522.45,16.92Z"/><path class="cls-1" d="M592.36,66.54A31.88,31.88,0,0,1,569,56.87a31.89,31.89,0,0,1-9.67-23.41A31.9,31.9,0,0,1,569,10.07a33.07,33.07,0,0,1,46.8,0,31.88,31.88,0,0,1,9.69,23.39,32.21,32.21,0,0,1-1.08,8.27h-32a8.25,8.25,0,0,1-8.27-8.27,8.23,8.23,0,0,1,8.27-8.27h14.33a15.53,15.53,0,0,0-14.33-8.27,15.88,15.88,0,0,0-11.71,4.86,16,16,0,0,0-4.83,11.68,15.94,15.94,0,0,0,4.83,11.71A15.93,15.93,0,0,0,592.36,50a16.16,16.16,0,0,0,10.93-4.15H623a32.54,32.54,0,0,1-12,14.93A32,32,0,0,1,592.36,66.54Z"/><path class="cls-1" d="M678.81,33.08A16,16,0,0,0,674,21.41a16.53,16.53,0,0,0-23.43,0,16,16,0,0,0-4.82,11.67V58.27a8.27,8.27,0,1,1-16.54,0V32.9a31.84,31.84,0,0,1,9.74-23.26,33,33,0,0,1,46.64,0,32,32,0,0,1,9.78,23.26V58.27a8.27,8.27,0,1,1-16.54,0V33.08Z"/><path class="cls-1" d="M498.93,96.69c0-5.47,3.74-9,8.94-9S517,91.39,517,96.66a8.37,8.37,0,0,1-8.53,8.73,6.92,6.92,0,0,1-6.26-3.39v10.13h-3.23Zm14.75-.13a5.76,5.76,0,1,0-5.78,5.84A5.55,5.55,0,0,0,513.68,96.56Z"/><path class="cls-1" d="M520.21,80.82h3.23V105h-3.23Z"/><path class="cls-1" d="M526.71,96.69a8.64,8.64,0,0,1,9.07-9c5.27,0,8.94,3.6,8.94,9V105h-3v-3.67a6.7,6.7,0,0,1-6.53,4.11A8.36,8.36,0,0,1,526.71,96.69Zm14.82-.13a5.78,5.78,0,1,0-5.78,5.84A5.55,5.55,0,0,0,541.53,96.56Z"/><path class="cls-1" d="M548.19,107h3.23c.79,1.9,2.45,2.79,4.87,2.79,3.12,0,5.13-1.5,5.13-5.31V102a6,6,0,0,1-5.61,3.23c-4.18,0-7.75-2.62-7.75-8.5v-8.6h3.23v8.6c0,3.64,2,5.47,5.06,5.47s5.07-1.9,5.07-5.47v-8.6h3.23v16.21c0,5.85-3.71,8.2-8.36,8.2C552.41,112.57,549.18,110.77,548.19,107Z"/><path class="cls-1" d="M577.57,97.88V88.16h3.23v9.72c0,3.13,1.67,4.52,4,4.52s4-1.46,4-4.52V88.16h3.23v9.72c0,3.06,1.7,4.52,4,4.52s4-1.39,4-4.52V88.16h3.23v9.72c0,5.13-3,7.51-6.93,7.51a6.37,6.37,0,0,1-5.92-3.33,6.39,6.39,0,0,1-5.91,3.33C580.56,105.39,577.57,103,577.57,97.88Z"/><path class="cls-1" d="M606.57,83.23a2.25,2.25,0,0,1,4.49,0,2.25,2.25,0,1,1-4.49,0Zm.65,4.93h3.23V105h-3.23Z"/><path class="cls-1" d="M614.36,98.6V82.21h3.23v6h9.24v3h-9.24V98.6c0,2.65,1.39,3.8,3.5,3.8s3.53-1.12,3.53-3.8v-.38h3.2v.38c0,4.55-2.72,6.79-6.73,6.79S614.36,103.15,614.36,98.6Z"/><path class="cls-1" d="M631.05,80.82h3.23V90.91a6.12,6.12,0,0,1,5.61-3.19c4.18,0,7.75,2.61,7.75,8.5V105h-3.23V96.22c0-3.64-2-5.51-5.06-5.51s-5.07,1.9-5.07,5.51V105h-3.23Z"/><path class="cls-1" d="M660,96.93V88.16h3.23v8.77c0,3.64,2,5.47,5.06,5.47s5.07-1.83,5.07-5.47V88.16h3.23v8.77c0,5.58-3.33,8.46-8.3,8.46S660,102.54,660,96.93Z"/><path class="cls-1" d="M679.33,100.09h3.26c.07,1.4,1.36,2.38,3.71,2.38s3.71-1,3.71-2.38c0-1.6-1.77-1.8-3.88-2.07-2.92-.38-6.46-.92-6.46-4.76,0-3.3,2.58-5.54,6.6-5.54s6.49,2.27,6.56,5.16h-3.2c-.1-1.29-1.29-2.24-3.33-2.24s-3.37,1-3.37,2.35c0,1.59,1.77,1.76,3.85,2,2.92.37,6.49.91,6.49,4.76,0,3.39-2.76,5.6-7,5.6S679.43,103.15,679.33,100.09Z"/></g></g></svg>